<?xml version="1.0" encoding="UTF-8"?>
<svg version="1.1" xmlns="http://www.w3.org/2000/svg" width="400" height="400">
<path d="M0 0 C0.99980251 -0.00297112 1.99960502 -0.00594224 3.02970457 -0.0090034 C6.37800654 -0.01767093 9.72627267 -0.01919702 13.07458496 -0.02069092 C15.47637 -0.02532055 17.8781543 -0.03034541 20.27993774 -0.03573608 C26.80510691 -0.04885007 33.33026865 -0.05534048 39.85544777 -0.05974674 C43.93512221 -0.06251431 48.01479431 -0.06675267 52.09446716 -0.07125092 C63.40438945 -0.08344168 74.71430987 -0.09374042 86.02423859 -0.09712601 C86.74753836 -0.09734557 87.47083813 -0.09756514 88.21605608 -0.09779136 C89.30351434 -0.09811878 89.30351434 -0.09811878 90.41294146 -0.09845281 C91.88186169 -0.09889626 93.35078192 -0.09934283 94.81970215 -0.09979248 C95.54832803 -0.10001391 96.27695391 -0.10023534 97.02765936 -0.10046348 C108.8192594 -0.10440679 120.61079748 -0.12184737 132.40237361 -0.145152 C144.52766668 -0.16892134 156.65292873 -0.18133044 168.77824545 -0.18249393 C175.57837902 -0.18340771 182.37843188 -0.18908464 189.17854309 -0.20731354 C195.580764 -0.22384385 201.98283228 -0.22592559 208.38506699 -0.21717453 C210.72707911 -0.21640675 213.06909961 -0.22071243 215.41109085 -0.23063278 C245.02409239 -0.34865118 268.54245682 6.9766052 290.03356934 28.14044189 C309.26755833 48.5329507 313.81359791 73.60152246 313.66467285 100.70147705 C313.66982333 103.11016871 313.67711305 105.51885658 313.68635559 107.92753601 C313.70283262 113.74276134 313.69633565 119.55761117 313.67826737 125.37282492 C313.66414103 130.10527744 313.66036987 134.83763875 313.66370964 139.57011032 C313.66418708 140.24814195 313.66466453 140.92617358 313.66515644 141.62475162 C313.66618294 143.00288406 313.66723831 144.38101648 313.6683222 145.75914888 C313.67685462 157.89607947 313.66032603 170.03284771 313.63049316 182.16973877 C313.6016514 193.90385757 313.59458278 205.63774267 313.60998535 217.37188721 C313.62680405 230.20213862 313.63072523 243.03227954 313.61327499 255.86253393 C313.61143092 257.23449094 313.60959619 258.60644796 313.60777092 259.978405 C313.60685883 260.65314336 313.60594674 261.32788173 313.60500701 262.02306671 C313.5994377 266.74218966 313.60267469 271.46125802 313.60931587 276.18037796 C313.61702582 282.54839153 313.60469952 288.91607206 313.57746696 295.28402901 C313.57063184 297.60865224 313.57043217 299.93330687 313.5776825 302.25792885 C313.64738086 327.53349612 308.80149385 347.95749852 293.03356934 368.14044189 C292.42384277 368.92419189 291.81411621 369.70794189 291.18591309 370.51544189 C277.73116763 386.80109124 256.87334921 397.50185715 236.03356934 400.14044189 C228.08343943 400.69882731 220.09674325 400.56168463 212.13195801 400.54449463 C209.73385807 400.55020559 207.33576084 400.55717265 204.93766785 400.56529236 C199.12920321 400.58130919 193.32086305 400.58334049 187.51238104 400.57807945 C182.78506597 400.57401805 178.05778271 400.57550454 173.33046913 400.58082771 C172.65453541 400.58157614 171.9786017 400.58232456 171.28218514 400.58309566 C169.90848204 400.58462733 168.53477895 400.58616568 167.16107587 400.58771063 C154.31298053 400.60140108 141.46494629 400.59602261 128.61685238 400.58452541 C116.89888724 400.57459895 105.18108015 400.58752967 93.46313938 400.61145961 C81.39067522 400.63592511 69.31828444 400.64544011 57.24579602 400.63880688 C50.48423847 400.63533085 43.72280228 400.63743878 36.96126366 400.65505791 C30.59908785 400.67060722 24.23721199 400.66648309 17.87504768 400.64775276 C15.55203175 400.64408879 13.2289932 400.64711062 10.90599823 400.65763855 C-7.59417915 400.7350235 -23.42650435 398.94395106 -39.96643066 390.14044189 C-40.80174316 389.71247314 -41.63705566 389.28450439 -42.49768066 388.84356689 C-63.22181701 377.40492021 -77.78020542 358.04560409 -84.40393066 335.51544189 C-86.40572118 327.9571118 -87.11616712 320.95428778 -87.12033081 313.16969299 C-87.12471306 312.16933476 -87.12909532 311.16897653 -87.13361037 310.13830441 C-87.1469593 306.78785935 -87.15316857 303.43744058 -87.15930176 300.0869751 C-87.16720609 297.68345014 -87.17547525 295.27992636 -87.18408203 292.87640381 C-87.20801141 285.66333003 -87.22322832 278.45025454 -87.2361421 271.23715499 C-87.23985882 269.19635278 -87.24383168 267.15555122 -87.24789476 265.11474967 C-87.27314339 252.41573406 -87.29517585 239.71671724 -87.30762291 227.01768208 C-87.31055216 224.07902841 -87.31351388 221.14037477 -87.31652832 218.20172119 C-87.31727437 217.47141625 -87.31802042 216.74111131 -87.31878908 215.98867591 C-87.331416 204.18424194 -87.36460564 192.37995949 -87.40633015 180.57559619 C-87.44890926 168.42881025 -87.47233653 156.28210151 -87.47754347 144.13524121 C-87.48094028 137.32649543 -87.49248837 130.51798614 -87.52564621 123.70931435 C-87.55590647 117.29305313 -87.56197476 110.87720161 -87.55026245 104.46088409 C-87.55004318 102.11934818 -87.5582248 99.77779225 -87.57591629 97.43632317 C-87.75468315 72.39161547 -82.91018272 50.3098563 -65.96643066 31.14044189 C-65.52299316 30.55520752 -65.07955566 29.96997314 -64.62268066 29.36700439 C-49.74553813 10.04486195 -23.70751219 -0.02208484 0 0 Z " fill="#4F45E4" transform="translate(86.9664306640625,-0.14044189453125)"/>
<path d="M0 0 C7.39414168 7.13790905 13.87010598 17.50109022 14.625 27.9375 C14.625 30.2475 14.625 32.5575 14.625 34.9375 C2.745 34.9375 -9.135 34.9375 -21.375 34.9375 C-22.695 31.6375 -24.015 28.3375 -25.375 24.9375 C-30.06701626 20.14348338 -35.1115827 16.8569704 -41.90625 16.5390625 C-43.56249959 16.53116306 -45.21889379 16.53931966 -46.875 16.5625 C-47.70386719 16.55089844 -48.53273438 16.53929687 -49.38671875 16.52734375 C-54.51071935 16.55178254 -57.87393188 17.26668548 -62.375 19.9375 C-63.365 20.2675 -64.355 20.5975 -65.375 20.9375 C-67.59543159 24.91090389 -67.84714943 28.45208039 -67.375 32.9375 C-65.03897881 38.66075193 -60.97487953 40.80138927 -55.5 43.37109375 C-48.11799577 46.35534854 -40.27364975 48.14396267 -32.6015625 50.21875 C-14.49529862 55.14831926 2.46437493 60.82658748 13 77.4375 C17.62534447 87.39978039 18.18675699 98.66156981 15.0625 109.1875 C10.9116699 120.21767789 2.04465039 129.57862287 -8.5625 134.6875 C-10.48875794 135.4659193 -12.42695377 136.2153351 -14.375 136.9375 C-15.33148438 137.33066406 -16.28796875 137.72382813 -17.2734375 138.12890625 C-36.04504958 144.78008238 -60.56492352 142.54219557 -78.53515625 134.4375 C-93.09480582 126.74712114 -102.66494616 115.74307837 -107.6875 100.125 C-108.375 96.9375 -108.375 96.9375 -108.375 90.9375 C-95.835 90.9375 -83.295 90.9375 -70.375 90.9375 C-69.055 93.9075 -67.735 96.8775 -66.375 99.9375 C-63.15318477 105.3898027 -58.32430448 108.12359663 -52.375 109.9375 C-42.42566405 111.00528229 -32.83759864 110.69303657 -24.375 104.875 C-21.42153655 102.01383229 -21.15641936 100.13775822 -21 96.125 C-21.06711669 92.53167589 -21.19635032 91.21471503 -23.1875 88.125 C-31.82949957 82.19421598 -41.23463858 79.78323721 -51.25390625 77.24609375 C-89.90936065 67.44308833 -89.90936065 67.44308833 -99.625 52.125 C-105.37535767 41.76205597 -107.29956673 31.64697996 -104.68359375 19.80859375 C-102.64329871 13.67063502 -99.63359719 8.77213932 -95.375 3.9375 C-94.86195313 3.33164063 -94.34890625 2.72578125 -93.8203125 2.1015625 C-71.04506634 -22.85313305 -24.66567572 -20.19807235 0 0 Z " fill="#FCFCFE" transform="translate(320.375,137.0625)"/>
<path d="M0 0 C11.05739479 9.22670029 16.95365756 20.00625572 19.5 34.125 C19.5 35.445 19.5 36.765 19.5 38.125 C7.29 38.125 -4.92 38.125 -17.5 38.125 C-18.83333333 34.125 -20.16666667 30.125 -21.5 26.125 C-23.35193753 25.01271581 -23.35193753 25.01271581 -25.5 24.125 C-26.09546631 23.77759766 -26.69093262 23.43019531 -27.30444336 23.07226562 C-32.62208284 20.07657072 -37.0187114 19.50923709 -43.0625 19.625 C-43.87396484 19.60953125 -44.68542969 19.5940625 -45.52148438 19.578125 C-52.26775661 19.62168447 -55.99634204 21.52597504 -61.40625 25.5390625 C-63.89221609 29.14371334 -63.12061735 33.98755097 -62.5 38.125 C-56.70760305 47.00667532 -43.20837128 49.61370976 -33.625 52.1875 C5.91253692 63.00356508 5.91253692 63.00356508 15.421875 78.1953125 C20.6637988 88.35466005 22.26960408 98.98482121 19.81640625 110.26953125 C17.74933481 116.40212908 14.74796099 121.27757006 10.5 126.125 C10.02175781 126.71925781 9.54351562 127.31351563 9.05078125 127.92578125 C0.17475572 138.00912511 -15.58425262 143.42374705 -28.65527344 144.34814453 C-51.22872741 145.35470475 -71.25670563 142.79095425 -89 127.8125 C-99.05127955 118.12915414 -103.24756072 107.90183209 -104.5 94.125 C-91.63 94.125 -78.76 94.125 -65.5 94.125 C-64.51 97.095 -63.52 100.065 -62.5 103.125 C-59.38289672 108.61110177 -54.43402958 111.39186396 -48.5 113.125 C-45.45358182 113.50793363 -42.44366362 113.60833956 -39.375 113.625 C-38.62331543 113.63120361 -37.87163086 113.63740723 -37.09716797 113.64379883 C-31.40116153 113.51595984 -25.28180622 112.70219152 -20.93334961 108.67358398 C-18.37485079 105.66672135 -16.63407431 103.30485395 -16.1875 99.375 C-16.60216518 95.06248217 -17.60139182 93.36868058 -20.5 90.125 C-29.6536509 84.06356131 -40.8562184 81.74413066 -51.375 79.1875 C-68.01814245 75.10167449 -86.39908245 70.11547392 -96.02734375 54.67578125 C-101.09697576 45.0802169 -103.36798842 35.00026938 -100.8125 24.2265625 C-98.67243057 17.85985594 -95.61997361 12.41347468 -91.5 7.125 C-91.04496094 6.52042969 -90.58992188 5.91585937 -90.12109375 5.29296875 C-82.07140176 -4.01777159 -68.21791946 -8.70368567 -56.5 -10.875 C-55.74074219 -11.05804688 -54.98148438 -11.24109375 -54.19921875 -11.4296875 C-35.64897043 -14.49007579 -15.46974988 -10.88049206 0 0 Z " fill="#FCFCFE" transform="translate(167.5,133.875)"/>
</svg>
